<?xml version="1.0" encoding="utf-8"?>
<!-- Generator: Adobe Illustrator 24.0.1, SVG Export Plug-In . SVG Version: 6.00 Build 0)  -->
<svg version="1.1" id="Layer_1" xmlns="http://www.w3.org/2000/svg" xmlns:xlink="http://www.w3.org/1999/xlink" x="0px" y="0px"
	 viewBox="0 0 48 48" style="enable-background:new 0 0 48 48;" xml:space="preserve">
<style type="text/css">
	.st0{fill:#008D36;}
</style>
<g>
	<path class="st0" d="M24,42.22C13.94,42.22,5.78,34.06,5.78,24S13.94,5.78,24,5.78S42.22,13.94,42.22,24
		C42.21,34.06,34.06,42.21,24,42.22z M24,8.58c-8.52,0-15.42,6.9-15.42,15.42S15.48,39.42,24,39.42S39.42,32.52,39.42,24
		C39.41,15.49,32.51,8.59,24,8.58z"/>
	<path class="st0" d="M24,31.01c-0.77,0-1.4-0.63-1.4-1.4V18.39c0-0.77,0.63-1.4,1.4-1.4c0.77,0,1.4,0.63,1.4,1.4v11.21
		C25.4,30.38,24.77,31.01,24,31.01z"/>
	<path class="st0" d="M29.61,25.4H18.39c-0.77,0-1.4-0.63-1.4-1.4c0-0.77,0.63-1.4,1.4-1.4h11.21c0.77,0,1.4,0.63,1.4,1.4
		C31.01,24.77,30.38,25.4,29.61,25.4z"/>
</g>
</svg>
